<svg width="125" height="27" viewBox="0 0 125 27" fill="none" xmlns="http://www.w3.org/2000/svg">
<path d="M30.1315 13.7C30.1315 12.464 30.4075 11.36 30.9595 10.388C31.5235 9.404 32.2855 8.642 33.2455 8.102C34.2175 7.55 35.3035 7.274 36.5035 7.274C37.9075 7.274 39.1375 7.634 40.1935 8.354C41.2495 9.074 41.9875 10.07 42.4075 11.342H39.5095C39.2215 10.742 38.8135 10.292 38.2855 9.992C37.7695 9.692 37.1695 9.542 36.4855 9.542C35.7535 9.542 35.0995 9.716 34.5235 10.064C33.9595 10.4 33.5155 10.88 33.1915 11.504C32.8795 12.128 32.7235 12.86 32.7235 13.7C32.7235 14.528 32.8795 15.26 33.1915 15.896C33.5155 16.52 33.9595 17.006 34.5235 17.354C35.0995 17.69 35.7535 17.858 36.4855 17.858C37.1695 17.858 37.7695 17.708 38.2855 17.408C38.8135 17.096 39.2215 16.64 39.5095 16.04H42.4075C41.9875 17.324 41.2495 18.326 40.1935 19.046C39.1495 19.754 37.9195 20.108 36.5035 20.108C35.3035 20.108 34.2175 19.838 33.2455 19.298C32.2855 18.746 31.5235 17.984 30.9595 17.012C30.4075 16.04 30.1315 14.936 30.1315 13.7ZM51.0399 20L48.2679 15.104H47.0799V20H44.5599V7.436H49.2759C50.2479 7.436 51.0759 7.61 51.7599 7.958C52.4439 8.294 52.9539 8.756 53.2899 9.344C53.6379 9.92 53.8119 10.568 53.8119 11.288C53.8119 12.116 53.5719 12.866 53.0919 13.538C52.6119 14.198 51.8979 14.654 50.9499 14.906L53.9559 20H51.0399ZM47.0799 13.214H49.1859C49.8699 13.214 50.3799 13.052 50.7159 12.728C51.0519 12.392 51.2199 11.93 51.2199 11.342C51.2199 10.766 51.0519 10.322 50.7159 10.01C50.3799 9.686 49.8699 9.524 49.1859 9.524H47.0799V13.214ZM69.7892 7.436V20H67.2692V11.828L63.9032 20H61.9952L58.6112 11.828V20H56.0912V7.436H58.9532L62.9492 16.778L66.9452 7.436H69.7892Z" fill="#4F46E5"/>
<path d="M81.9286 11.09C81.5806 10.358 81.0766 9.794 80.4166 9.398C79.7566 8.99 78.9886 8.786 78.1126 8.786C77.2366 8.786 76.4446 8.99 75.7366 9.398C75.0406 9.794 74.4886 10.37 74.0806 11.126C73.6846 11.87 73.4866 12.734 73.4866 13.718C73.4866 14.702 73.6846 15.566 74.0806 16.31C74.4886 17.054 75.0406 17.63 75.7366 18.038C76.4446 18.434 77.2366 18.632 78.1126 18.632C79.3366 18.632 80.3446 18.266 81.1366 17.534C81.9286 16.802 82.3906 15.812 82.5226 14.564H77.5186V13.232H84.2686V14.492C84.1726 15.524 83.8486 16.472 83.2966 17.336C82.7446 18.188 82.0186 18.866 81.1186 19.37C80.2186 19.862 79.2166 20.108 78.1126 20.108C76.9486 20.108 75.8866 19.838 74.9266 19.298C73.9666 18.746 73.2046 17.984 72.6406 17.012C72.0886 16.04 71.8126 14.942 71.8126 13.718C71.8126 12.494 72.0886 11.396 72.6406 10.424C73.2046 9.44 73.9666 8.678 74.9266 8.138C75.8866 7.586 76.9486 7.31 78.1126 7.31C79.4446 7.31 80.6206 7.64 81.6406 8.3C82.6726 8.96 83.4226 9.89 83.8906 11.09H81.9286ZM95.1824 10.136V20H93.5444V18.542C93.2324 19.046 92.7944 19.442 92.2304 19.73C91.6784 20.006 91.0664 20.144 90.3944 20.144C89.6264 20.144 88.9364 19.988 88.3244 19.676C87.7124 19.352 87.2264 18.872 86.8664 18.236C86.5184 17.6 86.3444 16.826 86.3444 15.914V10.136H87.9644V15.698C87.9644 16.67 88.2104 17.42 88.7024 17.948C89.1944 18.464 89.8664 18.722 90.7184 18.722C91.5944 18.722 92.2844 18.452 92.7884 17.912C93.2924 17.372 93.5444 16.586 93.5444 15.554V10.136H95.1824ZM99.586 11.738C99.874 11.174 100.282 10.736 100.81 10.424C101.35 10.112 102.004 9.956 102.772 9.956V11.648H102.34C100.504 11.648 99.586 12.644 99.586 14.636V20H97.948V10.136H99.586V11.738ZM113.411 10.136V20H111.773V18.542C111.461 19.046 111.023 19.442 110.459 19.73C109.907 20.006 109.295 20.144 108.623 20.144C107.855 20.144 107.165 19.988 106.553 19.676C105.941 19.352 105.455 18.872 105.095 18.236C104.747 17.6 104.573 16.826 104.573 15.914V10.136H106.193V15.698C106.193 16.67 106.439 17.42 106.931 17.948C107.423 18.464 108.095 18.722 108.947 18.722C109.823 18.722 110.513 18.452 111.017 17.912C111.521 17.372 111.773 16.586 111.773 15.554V10.136H113.411ZM119.669 20.162C118.913 20.162 118.235 20.036 117.635 19.784C117.035 19.52 116.561 19.16 116.213 18.704C115.865 18.236 115.673 17.702 115.637 17.102H117.329C117.377 17.594 117.605 17.996 118.013 18.308C118.433 18.62 118.979 18.776 119.651 18.776C120.275 18.776 120.767 18.638 121.127 18.362C121.487 18.086 121.667 17.738 121.667 17.318C121.667 16.886 121.475 16.568 121.091 16.364C120.707 16.148 120.113 15.938 119.309 15.734C118.577 15.542 117.977 15.35 117.509 15.158C117.053 14.954 116.657 14.66 116.321 14.276C115.997 13.88 115.835 13.364 115.835 12.728C115.835 12.224 115.985 11.762 116.285 11.342C116.585 10.922 117.011 10.592 117.563 10.352C118.115 10.1 118.745 9.974 119.453 9.974C120.545 9.974 121.427 10.25 122.099 10.802C122.771 11.354 123.131 12.11 123.179 13.07H121.541C121.505 12.554 121.295 12.14 120.911 11.828C120.539 11.516 120.035 11.36 119.399 11.36C118.811 11.36 118.343 11.486 117.995 11.738C117.647 11.99 117.473 12.32 117.473 12.728C117.473 13.052 117.575 13.322 117.779 13.538C117.995 13.742 118.259 13.91 118.571 14.042C118.895 14.162 119.339 14.3 119.903 14.456C120.611 14.648 121.187 14.84 121.631 15.032C122.075 15.212 122.453 15.488 122.765 15.86C123.089 16.232 123.257 16.718 123.269 17.318C123.269 17.858 123.119 18.344 122.819 18.776C122.519 19.208 122.093 19.55 121.541 19.802C121.001 20.042 120.377 20.162 119.669 20.162Z" fill="#0F172A"/>
<path d="M2.36337 20.0178C2.09558 20.0151 1.83446 19.934 1.6123 19.7844C1.39014 19.6349 1.21667 19.4235 1.1134 19.1765C1.01012 18.9294 0.981576 18.6574 1.03124 18.3942C1.08091 18.1311 1.20662 17.8883 1.39285 17.6958L9.29296 9.73221C9.49961 9.52234 9.76914 9.38582 10.0606 9.34325C10.352 9.30068 10.6494 9.35439 10.9074 9.49638L16.1681 12.3444L21.0478 7.41939C21.1718 7.2852 21.3215 7.17727 21.488 7.10218C21.6545 7.02709 21.8345 6.98632 22.0171 6.98227C22.1997 6.97821 22.3813 7.01097 22.551 7.07859C22.7207 7.14622 22.875 7.24732 23.0048 7.37588C23.1345 7.50443 23.2371 7.65779 23.3063 7.82684C23.3756 7.99588 23.41 8.17719 23.4077 8.35984C23.4054 8.5425 23.3663 8.72285 23.2928 8.89008C23.2192 9.0573 23.1128 9.20797 22.9798 9.33317L17.3744 14.9839C17.167 15.1924 16.8975 15.3281 16.6065 15.3706C16.3154 15.4131 16.0184 15.3602 15.7599 15.2197L10.5084 12.3716L3.3248 19.6278C3.19843 19.7533 3.04834 19.8524 2.88328 19.9194C2.71821 19.9864 2.54148 20.0199 2.36337 20.0178Z" fill="#4F46E5"/>
</svg>
