<svg version="1.1" id="Layer_1" xmlns="http://www.w3.org/2000/svg" xmlns:xlink="http://www.w3.org/1999/xlink" x="0px" y="0px"
	 width="100%" viewBox="0 0 162 133" enable-background="new 0 0 162 133" xml:space="preserve">
<path fill="#000000" opacity="1.000000" stroke="none" 
	d="
M10.000000,134.000000 
	C7.002455,134.000000 4.004910,134.000000 1.005524,134.000000 
	C1.003682,89.705399 1.003682,45.410801 1.003682,1.058100 
	C54.917027,1.058100 108.834129,1.058100 162.875610,1.058100 
	C162.875610,45.213821 162.875610,89.428108 162.875610,134.000000 
	C130.646652,134.000000 98.291985,134.000000 65.470154,133.531342 
	C65.001991,122.166885 65.039253,111.270782 64.954544,100.375633 
	C64.943176,98.912277 64.316673,97.453697 63.956913,95.751106 
	C63.938812,95.509308 63.818829,95.039429 63.849350,94.771072 
	C63.600384,94.292442 63.320900,94.082184 63.027836,93.522095 
	C61.707008,92.076019 60.399761,90.979790 58.965759,89.576180 
	C58.203983,89.242081 57.568966,89.215355 56.702862,89.120605 
	C56.471779,89.052589 55.996628,88.972992 55.820045,88.571167 
	C43.551437,88.113327 31.459398,88.037170 19.367422,88.046043 
	C18.550386,88.046646 17.733822,88.688049 16.697916,89.024612 
	C16.478792,89.017815 16.060757,89.150078 15.794752,89.139732 
	C15.339596,89.412354 15.150444,89.695320 14.982098,89.987549 
	C15.002903,89.996811 14.972945,89.961914 14.621769,89.990891 
	C13.160319,91.328056 12.050045,92.636238 10.966227,93.966347 
	C10.992682,93.988266 10.943163,93.950760 10.706511,94.041122 
	C10.370107,94.428238 10.270355,94.724998 10.091129,95.483032 
	C10.007769,108.629539 10.003884,121.314766 10.000000,134.000000 
M64.995720,61.056713 
	C64.996010,51.506012 65.037498,41.954945 64.953163,32.404991 
	C64.940186,30.935720 64.348320,29.471565 63.978889,27.281815 
	C59.780514,20.768843 51.358315,20.908585 46.131947,15.992814 
	C45.865925,15.742603 45.115032,16.089777 44.672321,15.930181 
	C43.348701,15.453021 41.680145,15.204293 40.837364,14.253676 
	C37.911480,10.953412 34.839649,11.723745 31.429146,13.185443 
	C28.784220,14.319024 26.028667,15.678359 23.242786,15.889797 
	C18.657269,16.237823 17.297348,18.981915 17.056263,22.716675 
	C16.810543,26.523273 17.001921,30.358088 17.001921,34.507824 
	C12.657633,34.972816 11.985278,38.013985 11.996112,41.548012 
	C12.019596,49.208107 12.066010,56.868893 11.991553,64.528313 
	C11.912546,72.655952 15.960516,78.261993 22.813572,81.914009 
	C28.961220,85.190109 35.563591,84.559326 42.347530,84.151253 
	C54.202507,83.438148 64.048431,72.264488 64.540016,62.917675 
	C64.646477,62.606144 64.752937,62.294617 64.995720,61.056713 
M87.033791,13.395073 
	C87.308434,11.395916 87.583084,9.396758 87.857727,7.397602 
	C86.154381,8.471788 84.213570,9.302127 82.802368,10.676324 
	C80.589546,12.831116 78.636467,15.278416 76.756195,17.741396 
	C75.014877,20.022364 73.835899,22.480215 77.355354,25.561504 
	C80.536522,21.528168 83.530968,17.731575 87.033791,13.395073 
M89.807922,31.092388 
	C90.198112,29.699196 90.588303,28.306004 90.978493,26.912811 
	C90.543686,26.593134 90.108887,26.273455 89.674080,25.953777 
	C86.579506,27.390974 83.335663,28.592247 80.476295,30.401230 
	C79.552391,30.985737 79.638321,33.166447 79.262314,34.616985 
	C80.659454,34.786152 82.267212,35.474060 83.407654,35.011013 
	C85.460060,34.177673 87.232323,32.654373 89.807922,31.092388 
z"/>
<path fill="#000000" opacity="1.000000" stroke="none" 
	d="
M59.000000,134.000000 
	C44.645771,134.000000 30.291544,134.000000 15.468815,133.531342 
	C14.994007,120.726860 14.987699,108.391045 15.264903,95.946754 
	C16.040386,95.224281 16.532356,94.610268 17.490549,93.987419 
	C31.042807,93.939049 44.128841,93.899521 57.447197,94.018745 
	C58.166245,94.742714 58.652973,95.307930 59.080437,96.354927 
	C59.014114,109.224464 59.007057,121.612236 59.000000,134.000000 
z"/>
<path fill="#524FCF" opacity="1.000000" stroke="none" 
	d="
M14.000000,134.000000 
	C13.250000,134.000000 12.500000,134.000000 11.373688,133.531342 
	C11.051460,121.048790 11.105544,109.034904 11.421095,97.154083 
	C12.424022,97.523117 13.165482,97.759094 13.938680,98.463051 
	C13.980278,110.620689 13.990139,122.310349 14.000000,134.000000 
z"/>
<path fill="#5450D5" opacity="1.000000" stroke="none" 
	d="
M59.139706,95.873154 
	C58.652973,95.307930 58.166245,94.742714 57.416336,93.794601 
	C57.153160,93.411713 57.011917,92.981697 57.009911,92.733994 
	C57.007908,92.486298 57.000763,91.990921 57.005264,91.738205 
	C57.012630,91.317009 57.015499,91.148537 57.322922,90.941383 
	C58.115822,90.562988 58.604168,90.223274 59.092514,89.883560 
	C60.399761,90.979790 61.707008,92.076019 63.101303,93.749947 
	C63.340942,94.615883 63.551102,94.853149 63.818829,95.039429 
	C63.818829,95.039429 63.938812,95.509308 63.943111,96.005371 
	C63.909451,96.666893 63.871494,96.832344 63.602539,97.340347 
	C63.247696,109.788589 63.123848,121.894295 63.000000,134.000000 
	C62.555553,134.000000 62.111111,134.000000 61.333290,133.531342 
	C61.000118,122.443054 61.045685,111.823036 60.955093,101.204185 
	C60.940285,99.468246 60.324951,97.737434 59.778481,95.950943 
	C59.569794,95.897629 59.139706,95.873154 59.139706,95.873154 
z"/>
<path fill="#8C8CD1" opacity="1.000000" stroke="none" 
	d="
M11.159628,97.021011 
	C11.105544,109.034904 11.051460,121.048790 10.998688,133.531342 
	C11.000000,134.000000 10.500000,134.000000 10.250000,134.000000 
	C10.003884,121.314766 10.007769,108.629539 10.298097,95.483337 
	C10.584540,95.022377 10.997685,95.054390 11.019493,95.382530 
	C11.080745,96.147453 11.120187,96.584229 11.159628,97.021011 
z"/>
<path fill="#D5D5FF" opacity="1.000000" stroke="none" 
	d="
M63.833538,96.997803 
	C63.871494,96.832344 63.909451,96.666893 63.961212,96.247169 
	C64.316673,97.453697 64.943176,98.912277 64.954544,100.375633 
	C65.039253,111.270782 65.001991,122.166885 65.001495,133.531342 
	C65.000000,134.000000 64.500000,134.000000 64.248802,133.531342 
	C63.942913,121.041046 63.888226,109.019424 63.833538,96.997803 
z"/>
<path fill="#5354B8" opacity="1.000000" stroke="none" 
	d="
M59.987167,96.004250 
	C60.324951,97.737434 60.940285,99.468246 60.955093,101.204185 
	C61.045685,111.823036 61.000118,122.443054 60.999958,133.531342 
	C61.000000,134.000000 60.500000,134.000000 60.250168,133.531342 
	C59.995949,120.709869 59.991558,108.357063 59.987167,96.004250 
z"/>
<path fill="#D5D5FF" opacity="1.000000" stroke="none" 
	d="
M59.778481,95.950943 
	C59.991558,108.357063 59.995949,120.709869 60.000168,133.531342 
	C60.000000,134.000000 59.500000,134.000000 59.250000,134.000000 
	C59.007057,121.612236 59.014114,109.224464 59.080437,96.354927 
	C59.139706,95.873154 59.569794,95.897629 59.778481,95.950943 
z"/>
<path fill="#8989E7" opacity="1.000000" stroke="none" 
	d="
M14.250000,134.000000 
	C13.990139,122.310349 13.980278,110.620689 14.002243,98.179832 
	C14.349843,96.970825 14.665617,96.513023 14.981391,96.055222 
	C14.987699,108.391045 14.994007,120.726860 15.000158,133.531342 
	C15.000000,134.000000 14.500000,134.000000 14.250000,134.000000 
z"/>
<path fill="#5353B6" opacity="1.000000" stroke="none" 
	d="
M63.602539,97.340347 
	C63.888226,109.019424 63.942913,121.041046 63.998802,133.531342 
	C64.000000,134.000000 63.500000,134.000000 63.250000,134.000000 
	C63.123848,121.894295 63.247696,109.788589 63.602539,97.340347 
z"/>
<path fill="#5652CE" opacity="1.000000" stroke="none" 
	d="
M64.057602,63.148552 
	C64.048431,72.264488 54.202507,83.438148 42.347530,84.151253 
	C35.563591,84.559326 28.961220,85.190109 22.813572,81.914009 
	C15.960516,78.261993 11.912546,72.655952 11.991553,64.528313 
	C12.066010,56.868893 12.019596,49.208107 11.996112,41.548012 
	C11.985278,38.013985 12.657633,34.972816 17.001921,34.507824 
	C17.001921,30.358088 16.810543,26.523273 17.056263,22.716675 
	C17.297348,18.981915 18.657269,16.237823 23.242786,15.889797 
	C26.028667,15.678359 28.784220,14.319024 31.429146,13.185443 
	C34.839649,11.723745 37.911480,10.953412 40.837364,14.253676 
	C41.680145,15.204293 43.348701,15.453021 44.672321,15.930181 
	C45.115032,16.089777 45.865925,15.742603 46.131947,15.992814 
	C51.358315,20.908585 59.780514,20.768843 63.970905,27.899872 
	C63.922947,28.685385 63.882969,28.852842 63.609688,29.358747 
	C63.252167,39.081036 63.082863,48.464733 63.053059,57.848877 
	C63.048660,59.232708 63.705040,60.618645 64.027130,62.002728 
	C63.998558,62.001850 64.024910,61.951122 64.021545,62.250793 
	C64.031319,62.749825 64.044456,62.949188 64.057602,63.148552 
M15.381487,47.720665 
	C15.562115,53.468510 15.742743,59.216358 16.140533,65.369995 
	C16.293112,65.652527 16.518219,65.854042 16.973473,66.724083 
	C18.598028,74.136276 23.754240,78.849533 30.623320,79.728134 
	C43.230125,81.340630 54.232719,77.830772 59.872944,62.745193 
	C60.247917,58.393696 60.938156,54.041290 60.925571,49.690914 
	C60.905598,42.790516 60.415817,35.891483 59.877823,28.543777 
	C59.620266,28.347101 59.362713,28.150425 58.725056,27.407314 
	C56.661198,26.085510 54.915951,26.500570 54.148449,28.782187 
	C53.484303,30.756548 53.154900,32.904022 53.052670,34.993332 
	C52.880505,38.512131 53.005497,42.045467 53.005497,45.572685 
	C52.276703,45.670139 51.547905,45.767593 50.819111,45.865047 
	C50.213585,44.087883 49.177753,42.332680 49.085701,40.529305 
	C48.839867,35.713058 49.176212,30.865891 48.897736,26.053200 
	C48.805820,24.464735 47.747501,22.766720 46.668083,21.519472 
	C46.404659,21.215084 44.315250,22.490967 42.569698,22.565638 
	C41.694572,16.854656 46.365440,20.181320 48.381149,19.181183 
	C48.315750,18.712442 48.250351,18.243702 48.184952,17.774960 
	C45.452732,18.184660 42.720509,18.594358 39.432102,19.021471 
	C39.246788,19.029547 39.061478,19.037622 38.518288,19.027237 
	C38.518288,19.027237 38.159939,19.025911 38.028595,18.355358 
	C36.525322,15.877930 34.783916,15.989099 32.320473,18.314125 
	C32.158886,19.235094 31.997297,20.156065 31.372654,21.728249 
	C31.529388,25.796770 31.686123,29.865294 31.922113,34.490543 
	C31.898420,34.676487 31.874727,34.862431 31.457205,35.448215 
	C31.587276,36.280060 31.717348,37.111904 31.923262,38.490078 
	C31.899944,38.672451 31.876625,38.854824 31.500561,39.348812 
	C31.609867,39.886292 31.719175,40.423767 31.952314,41.631134 
	C31.954794,42.084648 31.957272,42.538162 32.099308,43.015965 
	C32.099308,43.015965 32.085075,43.156898 31.270645,42.998539 
	C30.516783,41.424835 29.280115,39.904118 29.100483,38.267391 
	C28.582153,33.544586 28.489887,28.775023 27.901369,23.362673 
	C26.662916,22.263058 25.424463,21.163443 24.186012,20.063828 
	C23.452000,21.721411 22.157969,23.356396 22.089994,25.040855 
	C21.893675,29.905867 20.697359,35.303829 26.620588,38.172054 
	C26.993252,38.352512 26.972704,39.345001 26.291340,39.984074 
	C25.166805,40.000320 24.042269,40.016567 22.203684,39.976315 
	C20.428207,40.289051 18.652731,40.601788 16.330391,41.488853 
	C16.171762,43.346329 16.013134,45.203804 15.381487,47.720665 
M50.833176,21.484774 
	C50.897415,21.819277 50.961651,22.153780 51.025890,22.488283 
	C51.101109,22.156250 51.176327,21.824219 50.833176,21.484774 
z"/>
<path fill="#504CDE" opacity="1.000000" stroke="none" 
	d="
M15.264904,95.946754 
	C14.665617,96.513023 14.349843,96.970825 13.970506,97.711845 
	C13.165482,97.759094 12.424022,97.523117 11.421095,97.154083 
	C11.120187,96.584229 11.080745,96.147453 11.021715,95.105255 
	C10.982473,94.316818 10.962818,94.133789 10.943163,93.950760 
	C10.943163,93.950760 10.992682,93.988266 11.312886,93.944382 
	C12.746375,92.587639 13.859660,91.274780 14.972945,89.961914 
	C14.972945,89.961914 15.002903,89.996811 15.200268,89.901917 
	C15.667603,89.637444 15.888645,89.418457 16.060757,89.150078 
	C16.060757,89.150078 16.478792,89.017815 16.969440,89.036880 
	C17.636658,89.096268 17.813225,89.136597 18.333803,89.406921 
	C27.386713,89.758728 36.095734,89.969543 44.804447,89.957726 
	C48.200405,89.953117 51.595680,89.447380 55.240166,89.108200 
	C55.658249,89.022003 55.827438,88.997498 55.996628,88.972992 
	C55.996628,88.972992 56.471779,89.052589 56.718887,89.419235 
	C56.983452,90.183937 57.000912,90.581993 57.018368,90.980057 
	C57.015499,91.148537 57.012630,91.317009 56.536530,91.742149 
	C44.747978,91.998375 33.432182,91.946671 22.117863,92.052696 
	C20.418131,92.068619 18.725309,92.822174 17.069607,93.425217 
	C17.109921,93.615929 17.024328,93.996262 17.024326,93.996262 
	C16.532356,94.610268 16.040386,95.224281 15.264904,95.946754 
z"/>
<path fill="#5B57C6" opacity="1.000000" stroke="none" 
	d="
M86.779602,13.665028 
	C83.530968,17.731575 80.536522,21.528168 77.355354,25.561504 
	C73.835899,22.480215 75.014877,20.022364 76.756195,17.741396 
	C78.636467,15.278416 80.589546,12.831116 82.802368,10.676324 
	C84.213570,9.302127 86.154381,8.471788 87.857727,7.397601 
	C87.583084,9.396758 87.308434,11.395916 86.779602,13.665028 
z"/>
<path fill="#615BC8" opacity="1.000000" stroke="none" 
	d="
M89.464767,31.255850 
	C87.232323,32.654373 85.460060,34.177673 83.407654,35.011013 
	C82.267212,35.474060 80.659454,34.786152 79.262314,34.616985 
	C79.638321,33.166447 79.552391,30.985737 80.476295,30.401230 
	C83.335663,28.592247 86.579506,27.390974 89.674080,25.953777 
	C90.108887,26.273455 90.543686,26.593134 90.978493,26.912811 
	C90.588303,28.306004 90.198112,29.699196 89.464767,31.255850 
z"/>
<path fill="#D8D9FF" opacity="1.000000" stroke="none" 
	d="
M17.989792,89.176926 
	C17.813225,89.136597 17.636658,89.096268 17.188564,89.043678 
	C17.733822,88.688049 18.550386,88.046646 19.367422,88.046043 
	C31.459398,88.037170 43.551437,88.113327 55.820045,88.571167 
	C55.827438,88.997498 55.658249,89.022003 54.774979,89.040665 
	C42.037189,89.082191 30.013491,89.129555 17.989792,89.176926 
z"/>
<path fill="#D8D9FF" opacity="1.000000" stroke="none" 
	d="
M63.842995,29.020300 
	C63.882969,28.852842 63.922947,28.685385 63.993546,28.261486 
	C64.348320,29.471565 64.940186,30.935720 64.953163,32.404991 
	C65.037498,41.954945 64.996010,51.506012 64.718597,61.527664 
	C64.441475,61.998611 64.024910,61.951122 64.024910,61.951122 
	C64.024910,61.951122 63.998558,62.001850 64.004379,61.533096 
	C63.954460,50.382992 63.898727,39.701645 63.842995,29.020300 
z"/>
<path fill="#5451C1" opacity="1.000000" stroke="none" 
	d="
M14.621769,89.990891 
	C13.859660,91.274780 12.746375,92.587639 11.286430,93.922470 
	C12.050045,92.636238 13.160319,91.328056 14.621769,89.990891 
z"/>
<path fill="#5451C1" opacity="1.000000" stroke="none" 
	d="
M57.322922,90.941383 
	C57.000912,90.581993 56.983452,90.183937 56.949966,89.487251 
	C57.568966,89.215355 58.203983,89.242081 58.965759,89.576187 
	C58.604168,90.223274 58.115822,90.562988 57.322922,90.941383 
z"/>
<path fill="#5451C1" opacity="1.000000" stroke="none" 
	d="
M10.706511,94.041122 
	C10.962818,94.133789 10.982473,94.316818 10.999907,94.777115 
	C10.997685,95.054390 10.584540,95.022377 10.377573,95.022064 
	C10.270355,94.724998 10.370107,94.428238 10.706511,94.041122 
z"/>
<path fill="#5353B6" opacity="1.000000" stroke="none" 
	d="
M63.849350,94.771072 
	C63.551102,94.853149 63.340942,94.615883 63.114883,94.099777 
	C63.320900,94.082184 63.600384,94.292442 63.849350,94.771072 
z"/>
<path fill="#5451C1" opacity="1.000000" stroke="none" 
	d="
M15.794752,89.139732 
	C15.888645,89.418457 15.667603,89.637444 15.179462,89.892654 
	C15.150444,89.695320 15.339596,89.412354 15.794752,89.139732 
z"/>
<path fill="#5755B7" opacity="1.000000" stroke="none" 
	d="
M64.021545,62.250793 
	C64.024910,61.951122 64.441475,61.998611 64.650436,61.990849 
	C64.752937,62.294617 64.646477,62.606144 64.298813,63.033112 
	C64.044456,62.949188 64.031319,62.749825 64.021545,62.250793 
z"/>
<path fill="#C5C7FB" opacity="1.000000" stroke="none" 
	d="
M17.490551,93.987419 
	C17.024328,93.996262 17.109921,93.615929 17.533407,93.358612 
	C30.975235,93.061424 43.993576,93.021561 57.011917,92.981697 
	C57.011917,92.981697 57.153160,93.411713 57.184017,93.635857 
	C44.128841,93.899521 31.042807,93.939049 17.490551,93.987419 
z"/>
<path fill="#504FC6" opacity="1.000000" stroke="none" 
	d="
M57.009911,92.733994 
	C43.993576,93.021561 30.975235,93.061424 17.493092,93.167900 
	C18.725309,92.822174 20.418131,92.068619 22.117863,92.052696 
	C33.432182,91.946671 44.747978,91.998375 56.532028,91.994865 
	C57.000763,91.990921 57.007908,92.486298 57.009911,92.733994 
z"/>
<path fill="#000000" opacity="1.000000" stroke="none" 
	d="
M43.065395,23.040268 
	C44.315250,22.490967 46.404659,21.215084 46.668083,21.519472 
	C47.747501,22.766720 48.805820,24.464735 48.897736,26.053200 
	C49.176212,30.865891 48.839867,35.713058 49.085701,40.529305 
	C49.177753,42.332680 50.213585,44.087883 50.819111,45.865047 
	C51.547905,45.767593 52.276703,45.670139 53.005497,45.572685 
	C53.005497,42.045467 52.880505,38.512131 53.052670,34.993332 
	C53.154900,32.904022 53.484303,30.756548 54.148449,28.782187 
	C54.915951,26.500570 56.661198,26.085510 58.871758,28.155416 
	C59.058338,39.568443 59.098221,50.233364 59.085537,61.253273 
	C59.069241,62.083961 59.105511,62.559662 59.141785,63.035362 
	C54.232719,77.830772 43.230125,81.340630 30.623320,79.728134 
	C23.754240,78.849533 18.598028,74.136276 16.966892,65.884262 
	C16.932629,57.001129 16.904942,48.957829 16.877256,40.914520 
	C18.652731,40.601788 20.428207,40.289051 22.595018,40.467480 
	C22.989332,43.597256 22.995108,46.235863 22.994749,48.874474 
	C22.993790,55.928513 22.992744,55.928513 30.032398,56.357162 
	C32.452564,58.805637 34.725491,60.939991 37.161690,63.423428 
	C37.766369,65.475494 38.207779,67.178482 38.649189,68.881470 
	C39.112289,68.868149 39.575394,68.854828 40.038494,68.841507 
	C40.038494,66.589027 40.038494,64.336548 40.276287,61.993282 
	C40.348217,61.581463 40.182358,61.260429 39.968170,60.712318 
	C39.919842,60.485241 39.781265,60.042076 39.819828,59.776390 
	C39.576370,59.309986 39.294353,59.109268 38.985485,58.699867 
	C38.958637,58.491192 38.875992,58.078594 38.889427,57.726181 
	C34.948406,55.209015 30.993950,53.044270 27.020535,50.456593 
	C27.019850,48.058060 27.038122,46.082458 27.415512,44.061138 
	C29.211445,43.729248 30.648260,43.443073 32.085075,43.156898 
	C32.085075,43.156898 32.099308,43.015965 32.442993,42.842361 
	C32.817333,34.406368 32.847984,26.143980 32.878635,17.881592 
	C34.783916,15.989099 36.525322,15.877930 38.016994,19.153711 
	C38.003799,26.051291 37.909897,32.152603 38.047695,38.248680 
	C38.100155,40.569466 38.684647,42.878220 39.173035,45.487968 
	C40.487003,45.174747 41.654598,44.566021 42.765530,43.594315 
	C42.827709,36.500980 42.946552,29.770624 43.065395,23.040268 
z"/>
<path fill="#000000" opacity="1.000000" stroke="none" 
	d="
M27.135088,39.959709 
	C26.972704,39.345001 26.993252,38.352512 26.620588,38.172054 
	C20.697359,35.303829 21.893675,29.905867 22.089994,25.040855 
	C22.157969,23.356396 23.452000,21.721411 24.186012,20.063828 
	C25.424463,21.163443 26.662916,22.263058 27.981041,24.151676 
	C28.031336,29.949789 28.001961,34.958897 27.763054,39.981941 
	C27.553520,39.995880 27.135088,39.959709 27.135088,39.959709 
z"/>
<path fill="#4F4BDC" opacity="1.000000" stroke="none" 
	d="
M42.817547,22.802952 
	C42.946552,29.770624 42.827709,36.500980 42.370842,43.568382 
	C41.357075,42.475685 40.142090,41.062553 40.097446,39.613369 
	C39.885986,32.748993 39.994061,25.874773 39.988289,19.004059 
	C42.720509,18.594358 45.452732,18.184660 48.184952,17.774960 
	C48.250351,18.243702 48.315750,18.712442 48.381149,19.181183 
	C46.365440,20.181320 41.694572,16.854656 42.817547,22.802952 
z"/>
<path fill="#504BDD" opacity="1.000000" stroke="none" 
	d="
M26.713215,39.971893 
	C27.135088,39.959709 27.553520,39.995880 27.756897,40.339417 
	C27.658981,41.824253 27.357687,42.965557 27.056395,44.106857 
	C27.038122,46.082458 27.019850,48.058060 27.064579,50.828167 
	C29.257744,52.971363 31.387903,54.320049 34.109249,56.043041 
	C32.291355,56.043041 31.088257,56.043041 29.885160,56.043041 
	C22.992744,55.928513 22.993790,55.928513 22.994749,48.874474 
	C22.995108,46.235863 22.989332,43.597256 22.952044,40.495728 
	C24.042269,40.016567 25.166805,40.000320 26.713215,39.971893 
z"/>
<path fill="#5354B8" opacity="1.000000" stroke="none" 
	d="
M59.507362,62.890278 
	C59.105511,62.559662 59.069241,62.083961 59.404411,60.986771 
	C59.892170,49.907475 60.008488,39.449673 60.124802,28.991871 
	C60.415817,35.891483 60.905598,42.790516 60.925571,49.690914 
	C60.938156,54.041290 60.247917,58.393696 59.507362,62.890278 
z"/>
<path fill="#5755B7" opacity="1.000000" stroke="none" 
	d="
M63.609688,29.358747 
	C63.898727,39.701645 63.954460,50.382992 64.032944,61.533974 
	C63.705040,60.618645 63.048660,59.232708 63.053059,57.848877 
	C63.082863,48.464733 63.252167,39.081036 63.609688,29.358747 
z"/>
<path fill="#D3D8FF" opacity="1.000000" stroke="none" 
	d="
M60.001312,28.767824 
	C60.008488,39.449673 59.892170,49.907475 59.456978,60.631783 
	C59.098221,50.233364 59.058338,39.568443 59.061806,28.428635 
	C59.362713,28.150425 59.620266,28.347101 60.001312,28.767824 
z"/>
<path fill="#5451C1" opacity="1.000000" stroke="none" 
	d="
M39.710197,19.012764 
	C39.994061,25.874773 39.885986,32.748993 40.097446,39.613369 
	C40.142090,41.062553 41.357075,42.475685 42.427498,43.931358 
	C41.654598,44.566021 40.487003,45.174747 39.196667,45.005516 
	C39.008003,35.833603 38.942085,27.439650 38.876167,19.045696 
	C39.061478,19.037622 39.246788,19.029547 39.710197,19.012764 
z"/>
<path fill="#5353B6" opacity="1.000000" stroke="none" 
	d="
M27.415512,44.061138 
	C27.357687,42.965557 27.658981,41.824253 27.966431,40.325478 
	C28.001961,34.958897 28.031336,29.949789 28.145506,24.482252 
	C28.489887,28.775023 28.582153,33.544586 29.100483,38.267391 
	C29.280115,39.904118 30.516783,41.424835 31.677860,43.077721 
	C30.648260,43.443073 29.211445,43.729248 27.415512,44.061138 
z"/>
<path fill="#B5B4EC" opacity="1.000000" stroke="none" 
	d="
M38.697227,19.036467 
	C38.942085,27.439650 39.008003,35.833603 39.050293,44.710007 
	C38.684647,42.878220 38.100155,40.569466 38.047695,38.248680 
	C37.909897,32.152603 38.003799,26.051291 38.082664,19.488987 
	C38.159939,19.025911 38.518288,19.027237 38.697227,19.036467 
z"/>
<path fill="#C5C7FB" opacity="1.000000" stroke="none" 
	d="
M32.599556,18.097858 
	C32.847984,26.143980 32.817333,34.406368 32.373215,42.830215 
	C31.957272,42.538162 31.954794,42.084648 31.949421,40.977554 
	C31.915453,39.895050 31.884380,39.466122 31.853308,39.037197 
	C31.876625,38.854824 31.899944,38.672451 31.944075,37.857506 
	C31.926935,36.499416 31.888985,35.773895 31.851032,35.048374 
	C31.874727,34.862431 31.898420,34.676487 31.941500,33.758015 
	C31.919161,29.042669 31.877436,25.059851 31.835709,21.077034 
	C31.997297,20.156065 32.158886,19.235094 32.599556,18.097858 
z"/>
<path fill="#ACAFF9" opacity="1.000000" stroke="none" 
	d="
M16.603825,41.201691 
	C16.904942,48.957829 16.932629,57.001129 16.888084,65.509491 
	C16.518219,65.854042 16.293112,65.652527 16.069588,64.703911 
	C15.950597,58.378979 15.902551,52.720127 15.854504,47.061279 
	C16.013134,45.203804 16.171762,43.346329 16.603825,41.201691 
z"/>
<path fill="#5451C1" opacity="1.000000" stroke="none" 
	d="
M15.617996,47.390972 
	C15.902551,52.720127 15.950597,58.378979 15.961008,64.501015 
	C15.742743,59.216358 15.562115,53.468510 15.617996,47.390972 
z"/>
<path fill="#5353B6" opacity="1.000000" stroke="none" 
	d="
M31.604183,21.402641 
	C31.877436,25.059851 31.919161,29.042669 31.901871,33.479652 
	C31.686123,29.865294 31.529388,25.796770 31.604183,21.402641 
z"/>
<path fill="#4F4BDC" opacity="1.000000" stroke="none" 
	d="
M51.042358,21.488480 
	C51.176327,21.824219 51.101109,22.156250 51.025887,22.488283 
	C50.961651,22.153780 50.897415,21.819277 51.042358,21.488480 
z"/>
<path fill="#5353B6" opacity="1.000000" stroke="none" 
	d="
M31.654119,35.248295 
	C31.888985,35.773895 31.926935,36.499416 31.906153,37.584343 
	C31.717348,37.111904 31.587276,36.280060 31.654119,35.248295 
z"/>
<path fill="#5353B6" opacity="1.000000" stroke="none" 
	d="
M31.676933,39.193005 
	C31.884380,39.466122 31.915453,39.895050 31.887505,40.642609 
	C31.719175,40.423767 31.609867,39.886292 31.676933,39.193005 
z"/>
<path fill="#5451C1" opacity="1.000000" stroke="none" 
	d="
M18.333803,89.406921 
	C30.013491,89.129555 42.037189,89.082191 54.526077,89.102364 
	C51.595680,89.447380 48.200405,89.953117 44.804447,89.957726 
	C36.095734,89.969543 27.386713,89.758728 18.333803,89.406921 
z"/>
<path fill="#5855C8" opacity="1.000000" stroke="none" 
	d="
M30.032398,56.357162 
	C31.088257,56.043041 32.291355,56.043041 34.109249,56.043041 
	C31.387903,54.320049 29.257744,52.971363 27.083538,51.251099 
	C30.993950,53.044270 34.948406,55.209015 38.549824,57.718834 
	C37.797333,59.734055 37.397877,61.404198 36.998421,63.074345 
	C34.725491,60.939991 32.452564,58.805637 30.032398,56.357162 
z"/>
<path fill="#504BDD" opacity="1.000000" stroke="none" 
	d="
M37.161690,63.423428 
	C37.397877,61.404198 37.797333,59.734055 38.536392,58.071251 
	C38.875992,58.078594 38.958637,58.491192 39.060604,58.921219 
	C39.309921,59.634258 39.516151,59.864536 39.781265,60.042076 
	C39.781265,60.042076 39.919842,60.485241 39.966507,60.998726 
	C40.021614,61.702835 40.030052,61.893456 40.038494,62.084072 
	C40.038494,64.336548 40.038494,66.589027 40.038494,68.841507 
	C39.575394,68.854828 39.112289,68.868149 38.649189,68.881470 
	C38.207779,67.178482 37.766369,65.475494 37.161690,63.423428 
z"/>
<path fill="#5855C8" opacity="1.000000" stroke="none" 
	d="
M40.276287,61.993282 
	C40.030052,61.893456 40.021614,61.702835 40.014835,61.225807 
	C40.182358,61.260429 40.348217,61.581463 40.276287,61.993282 
z"/>
<path fill="#5855C8" opacity="1.000000" stroke="none" 
	d="
M39.819828,59.776390 
	C39.516151,59.864536 39.309921,59.634258 39.087452,59.129898 
	C39.294353,59.109268 39.576370,59.309986 39.819828,59.776390 
z"/>
</svg>