<svg width="260" height="152" viewBox="0 0 260 152" fill="none" xmlns="http://www.w3.org/2000/svg">
<path opacity="0.05" d="M15.7378 151.999C12.6296 151.968 9.59879 151.021 7.02017 149.278C4.44155 147.534 2.42813 145.07 1.22943 142.189C0.0307297 139.308 -0.300626 136.136 0.275874 133.068C0.852374 129.999 2.31147 127.168 4.47307 124.924L96.1694 32.0683C98.568 29.6213 101.696 28.0294 105.079 27.533C108.462 27.0367 111.914 27.6629 114.909 29.3185L175.969 62.5267L232.608 5.10075C234.047 3.53609 235.784 2.27764 237.717 1.40206C239.65 0.526475 241.738 0.0511926 243.858 0.00391041C245.978 -0.0433717 248.085 0.33854 250.055 1.12707C252.024 1.91561 253.816 3.09442 255.322 4.59339C256.828 6.09236 258.019 7.88053 258.822 9.85161C259.626 11.8227 260.026 13.9367 259.999 16.0664C259.972 18.1962 259.518 20.2992 258.665 22.249C257.811 24.1988 256.576 25.9557 255.032 27.4156L189.971 93.3027C187.563 95.7345 184.436 97.3164 181.057 97.8121C177.679 98.3079 174.231 97.6909 171.231 96.0525L110.276 62.8443L26.8971 147.451C25.4304 148.915 23.6882 150.071 21.7724 150.851C19.8565 151.632 17.8052 152.023 15.7378 151.999Z" fill="white"/>
</svg>
